<?xml version="1.0" standalone="no"?>
<!DOCTYPE svg PUBLIC "-//W3C//DTD SVG 20010904//EN"
 "http://www.w3.org/TR/2001/REC-SVG-20010904/DTD/svg10.dtd">
<svg version="1.0" xmlns="http://www.w3.org/2000/svg"
 width="128.000000pt" height="128.000000pt" viewBox="0 0 128.000000 128.000000"
 preserveAspectRatio="xMidYMid meet">
<metadata>
Created by potrace 1.14, written by Peter Selinger 2001-2017
</metadata>
<g transform="translate(0.000000,128.000000) scale(0.100000,-0.100000)"
fill="#000000" stroke="none">
<path d="M181 1262 c-19 -10 -43 -34 -53 -53 -17 -32 -18 -68 -18 -574 1 -523
1 -541 21 -572 41 -64 37 -63 561 -61 l473 3 3 549 c1 360 -1 553 -8 560 -13
13 -13 46 0 46 7 0 10 22 8 58 l-3 57 -475 3 c-445 2 -477 1 -509 -16z"/>
</g>
</svg>
